# xmcd
#
# Track frame offsets:
#	150
#	14745
#	26607
#	30151
#	42781
#	55141
#	69579
#	85588
#	97055
#	119492
#	121512
#	136803
#	150029
#	169042
#
# Disc length: 2624 seconds
#
# Revision: 1
# Processed by: cddbd v1.5.2PL0 Copyright (c) Steve Scherf et al.
# Submitted via: audiograbber 1.83.01
#
DISCID=a00a3e0e
DTITLE=Brett Watts - Solid Ground
DYEAR=1900
DGENRE=Country
TTITLE0=A Few More Good Rodeos
TTITLE1=Quenn Of My Rodeo Dreams
TTITLE2=It'll Change (poem)
TTITLE3=Close To The Heart
TTITLE4=Solid Ground
TTITLE5=You Can't Judge A Horse By It's Hide (poem)
TTITLE6=Takes My Breath Away
TTITLE7=Candle In The Window
TTITLE8=The Light Shines My Way
TTITLE9=No Whiskey, No Bull (poem)
TTITLE10=Two Days Out
TTITLE11=Jesus Is The Reason
TTITLE12=He Rides
TTITLE13=My Dad's Song
EXTD=
EXTT0=
EXTT1=
EXTT2=
EXTT3=
EXTT4=
EXTT5=
EXTT6=
EXTT7=
EXTT8=
EXTT9=
EXTT10=
EXTT11=
EXTT12=
EXTT13=
PLAYORDER=
